<?xml version="1.0" encoding="iso-8859-1"?>
<!-- Uploaded to: SVG Repo, www.svgrepo.com, Generator: SVG Repo Mixer Tools -->
<svg version="1.1" id="Layer_1" xmlns="http://www.w3.org/2000/svg" xmlns:xlink="http://www.w3.org/1999/xlink" 
	 viewBox="0 0 512.01 512.01" xml:space="preserve">
<path style="fill:#9BE7FE;" d="M353.276,57.411V15.673C353.276,7.018,346.258,0,337.602,0H174.406
	c-8.656,0-15.673,7.018-15.673,15.673v41.737L76.19,178.442V512h165.083h194.545V178.442L353.276,57.411z"/>
<polygon style="fill:#71DFFE;" points="435.819,178.442 353.276,57.411 158.733,57.411 241.273,178.442 "/>
<g>
	<rect x="241.271" y="178.448" style="fill:#19CCFE;" width="194.55" height="333.563"/>
	<path style="fill:#19CCFE;" d="M158.733,57.411V15.673C158.733,7.018,165.75,0,174.406,0h163.196
		c8.656,0,15.673,7.018,15.673,15.673v41.737H158.733z"/>
</g>
<g>
	<rect x="279.368" y="235.478" style="fill:#FFFC99;" width="118.356" height="111.7"/>
	<rect x="279.368" y="369.727" style="fill:#FFFC99;" width="118.356" height="31.347"/>
	<rect x="279.368" y="423.623" style="fill:#FFFC99;" width="118.356" height="31.347"/>
</g>
</svg>